<svg xmlns="http://www.w3.org/2000/svg" viewBox="0 0 32 32">
  <defs>
    <linearGradient id="g" x1="0" y1="0" x2="32" y2="32" gradientUnits="userSpaceOnUse">
      <stop offset="0" stop-color="#22d3ee"/>
      <stop offset="1" stop-color="#0891b2"/>
    </linearGradient>
  </defs>
  <rect width="32" height="32" rx="8" fill="url(#g)"/>
  <path fill="#06080d" d="M16 9c-4.5 0-8.5 2.6-10 6 1.5 3.4 5.5 6 10 6s8.5-2.6 10-6c-1.5-3.4-5.5-6-10-6zm0 9.6a3.6 3.6 0 1 1 0-7.2 3.6 3.6 0 0 1 0 7.2zm0-5.7a2.1 2.1 0 1 0 0 4.2 2.1 2.1 0 0 0 0-4.2z"/>
</svg>
